<svg width="24" height="24" viewBox="0 0 24 24" fill="none" xmlns="http://www.w3.org/2000/svg">
<path d="M9.14959 3.37519L17.5746 11.7752C17.6746 11.8752 17.7456 11.9835 17.7876 12.1002C17.8296 12.2169 17.8503 12.3419 17.8496 12.4752C17.8496 12.6085 17.8286 12.7335 17.7866 12.8502C17.7446 12.9669 17.6739 13.0752 17.5746 13.1752L9.14959 21.6002C8.91626 21.8335 8.62459 21.9502 8.27459 21.9502C7.92459 21.9502 7.62459 21.8252 7.37459 21.5752C7.12459 21.3252 6.99959 21.0335 6.99959 20.7002C6.99959 20.3669 7.12459 20.0752 7.37459 19.8252L14.7246 12.4752L7.37459 5.12519C7.14126 4.89186 7.02459 4.6042 7.02459 4.2622C7.02459 3.9202 7.14959 3.62453 7.39959 3.37519C7.64959 3.12519 7.94126 3.00019 8.27459 3.00019C8.60793 3.00019 8.89959 3.12519 9.14959 3.37519Z" fill="#4A69E2"/>
</svg>
